<?xml version="1.0" encoding="UTF-8" standalone="no" ?>
<!DOCTYPE svg PUBLIC "-//W3C//DTD SVG 1.1//EN" "http://www.w3.org/Graphics/SVG/1.1/DTD/svg11.dtd">
<svg xmlns="http://www.w3.org/2000/svg" xmlns:xlink="http://www.w3.org/1999/xlink" version="1.1" width="1280" height="1024" viewBox="0 0 1280 1024" xml:space="preserve">
<desc>Created with Fabric.js 5.3.0</desc>
<defs>
</defs>
<g transform="matrix(1 0 0 1 640 512)" id="background-logo"  >
<rect style="stroke: none; stroke-width: 0; stroke-dasharray: none; stroke-linecap: butt; stroke-dashoffset: 0; stroke-linejoin: miter; stroke-miterlimit: 4; fill: rgb(255,255,255); fill-opacity: 0; fill-rule: nonzero; opacity: 1;"  paint-order="stroke"  x="-640" y="-512" rx="0" ry="0" width="1280" height="1024" />
</g>
<g transform="matrix(1.2025129599419278 0 0 1.2025129599419278 217.29812499999997 512)" id="logo-logo"  >
<g style=""  paint-order="stroke"   >
		<g transform="matrix(0.3113863305003339 0 0 -0.3113863305003339 63.62089811617557 53.236163993989635)"  >
<linearGradient id="SVGID_1190394" gradientUnits="userSpaceOnUse" gradientTransform="matrix(1 0 0 1 1949.0199999999998 1039.39)"  x1="0" y1="0" x2="0" y2="511">
<stop offset="0%" style="stop-color:rgb(180,236,81);stop-opacity: 1"/>
<stop offset="100%" style="stop-color:rgb(66,147,33);stop-opacity: 1"/>
</linearGradient>
<path style="stroke: none; stroke-width: 1; stroke-dasharray: none; stroke-linecap: butt; stroke-dashoffset: 0; stroke-linejoin: miter; stroke-miterlimit: 4; fill: url(#SVGID_1190394); fill-rule: nonzero; opacity: 1;"  paint-order="stroke"  transform=" translate(-2194.42, -1294.7)" d="M 2359.12 1186.21 C 2377.21 1220.68 2387.5 1259.89 2387.5 1301.52 C 2387.5 1438.76 2276.24 1550.01 2139 1550.01 C 2062.78 1550.01 1994.6 1515.66 1949.02 1461.62 L 2000.74 1442.29 C 2036.35 1477.27 2085.14 1498.87 2139 1498.87 C 2248 1498.87 2336.36 1410.51 2336.36 1301.52 C 2336.36 1192.52 2248 1104.1599999999999 2139 1104.1599999999999 C 2117.15 1104.1599999999999 2096.15 1107.7699999999998 2076.51 1114.32 L 2027.4400000000003 1079.49 C 2061.0000000000005 1062.59 2098.8700000000003 1053.02 2139.0000000000005 1053.02 C 2192.5100000000007 1053.02 2242.0200000000004 1069.99 2282.5700000000006 1098.75 L 2439.8200000000006 1039.39 L 2359.120000000001 1186.21" stroke-linecap="round" />
</g>
		<g transform="matrix(0.3113863305003339 0 0 -0.3113863305003339 -18.829531405355283 74.85883078393269)"  >
<linearGradient id="SVGID_1190395" gradientUnits="userSpaceOnUse" gradientTransform="matrix(1 0 0 1 1890.51 1133.96)"  x1="0" y1="0" x2="0" y2="183">
<stop offset="0%" style="stop-color:rgb(180,236,81);stop-opacity: 1"/>
<stop offset="100%" style="stop-color:rgb(66,147,33);stop-opacity: 1"/>
</linearGradient>
<path style="stroke: none; stroke-width: 1; stroke-dasharray: none; stroke-linecap: butt; stroke-dashoffset: 0; stroke-linejoin: miter; stroke-miterlimit: 4; fill: url(#SVGID_1190395); fill-rule: nonzero; opacity: 1;"  paint-order="stroke"  transform=" translate(-1929.635, -1225.2600000000002)" d="M 1891 1316.56 C 1890.71 1311.58 1890.51 1306.57 1890.51 1301.52 C 1890.51 1236.95 1915.14 1178.15 1955.51 1133.96 L 1968.76 1201.73 C 1952.89 1228.76 1943.25 1259.89 1941.86 1293.16 L 1891 1316.5600000000002" stroke-linecap="round" />
</g>
		<g transform="matrix(0.3113863305003339 0 0 -0.3113863305003339 -14.781509108850798 -5.284226028590695)"  >
<linearGradient id="SVGID_1190397" gradientUnits="userSpaceOnUse" gradientTransform="matrix(1 0 0 1 1540.3900000000003 1073.3300000000004)"  x1="0" y1="0" x2="0" y2="819">
<stop offset="0%" style="stop-color:rgb(180,236,81);stop-opacity: 1"/>
<stop offset="100%" style="stop-color:rgb(66,147,33);stop-opacity: 1"/>
</linearGradient>
<path style="stroke: none; stroke-width: 1; stroke-dasharray: none; stroke-linecap: butt; stroke-dashoffset: 0; stroke-linejoin: miter; stroke-miterlimit: 4; fill: url(#SVGID_1190397); fill-rule: nonzero; opacity: 1;"  paint-order="stroke"  transform=" translate(-1942.6350000000004, -1482.6350000000002)" d="M 1703.65 1443.79 C 1677.94 1443.79 1657.0900000000001 1464.6399999999999 1657.0900000000001 1490.35 C 1657.0900000000001 1516.06 1677.94 1536.8999999999999 1703.65 1536.8999999999999 C 1729.3600000000001 1536.8999999999999 1750.2 1516.06 1750.2 1490.35 C 1750.2 1464.6399999999999 1729.3600000000001 1443.79 1703.65 1443.79 z M 1916.0800000000002 1830.6299999999999 C 1932.38 1830.6299999999999 1945.5800000000002 1817.4299999999998 1945.5800000000002 1801.1299999999999 C 1945.5800000000002 1784.84 1932.38 1771.6299999999999 1916.0800000000002 1771.6299999999999 C 1899.7900000000002 1771.6299999999999 1886.5800000000002 1784.84 1886.5800000000002 1801.1299999999999 C 1886.5800000000002 1817.4299999999998 1899.7900000000002 1830.6299999999999 1916.0800000000002 1830.6299999999999 z M 2289.8100000000004 1697.54 C 2297.7700000000004 1697.54 2304.2300000000005 1691.08 2304.2300000000005 1683.11 C 2304.2300000000005 1675.1399999999999 2297.7700000000004 1668.6899999999998 2289.8100000000004 1668.6899999999998 C 2281.8400000000006 1668.6899999999998 2275.3800000000006 1675.1399999999999 2275.3800000000006 1683.11 C 2275.3800000000006 1691.08 2281.8400000000006 1697.54 2289.8100000000004 1697.54 z M 2139 1374.07 C 2179.08 1374.07 2211.56 1341.59 2211.56 1301.52 C 2211.56 1261.44 2179.08 1228.96 2139 1228.96 C 2098.93 1228.96 2066.45 1261.44 2066.45 1301.52 C 2066.45 1341.59 2098.93 1374.07 2139 1374.07 z M 2077.18 1149 C 2096.27 1141.25 2117.1299999999997 1136.95 2139 1136.95 C 2229.89 1136.95 2303.58 1210.63 2303.58 1301.52 C 2303.58 1392.41 2229.89 1466.09 2139 1466.09 C 2088.02 1466.09 2042.45 1442.8899999999999 2012.26 1406.48 L 1852.97 1466.03 C 1845.64 1451.69 1835.9 1438.79 1824.17 1427.97 C 1831.66 1442.4 1836.5600000000002 1458.3700000000001 1838.43 1475.25 C 1838.99 1480.21 1839.3700000000001 1485.23 1839.3700000000001 1490.35 C 1839.3700000000001 1526.82 1824.96 1559.8999999999999 1801.5500000000002 1584.29 L 1889.0300000000002 1714.42 C 1897.5800000000002 1711.76 1906.6600000000003 1710.3200000000002 1916.0800000000002 1710.3200000000002 C 1921.8300000000002 1710.3200000000002 1927.44 1710.88 1932.89 1711.9 L 1996.44 1685.02 L 1979.49 1736.16 C 1984.07 1740.6200000000001 1988.15 1745.5700000000002 1991.7 1750.91 L 2234.7400000000002 1683.3000000000002 C 2234.7400000000002 1683.2400000000002 2234.73 1683.1800000000003 2234.73 1683.1100000000001 C 2234.73 1672.44 2237.82 1662.5200000000002 2243.07 1654.0800000000002 L 2231.32 1617.2 L 2270.6400000000003 1631.53 C 2276.6200000000003 1629.31 2283.0600000000004 1628.03 2289.8100000000004 1628.03 C 2320.2200000000003 1628.03 2344.8800000000006 1652.69 2344.8800000000006 1683.11 C 2344.8800000000006 1713.53 2320.2200000000007 1738.1899999999998 2289.8100000000004 1738.1899999999998 C 2275.2900000000004 1738.1899999999998 2262.1300000000006 1732.5199999999998 2252.2900000000004 1723.33 C 2245.9900000000002 1717.4299999999998 2241.0500000000006 1710.1 2238.0600000000004 1701.82 C 2238.4600000000005 1710.31 2240.8800000000006 1718.24 2244.6900000000005 1725.3 L 2019.2900000000004 1803.29 C 2015.6300000000003 1791.6599999999999 2009.7700000000004 1781.02 2002.0700000000004 1771.94 C 2005.1800000000003 1781.1100000000001 2006.8900000000003 1790.91 2006.8900000000003 1801.13 C 2006.8900000000003 1803.3300000000002 2006.8000000000004 1805.5 2006.6400000000003 1807.66 L 2006.6300000000003 1807.67 C 2003.2700000000004 1854.77 1964.0300000000004 1891.94 1916.0800000000004 1891.94 C 1865.9300000000003 1891.94 1825.2700000000004 1851.28 1825.2700000000004 1801.13 C 1825.2700000000004 1785.17 1829.4000000000005 1770.18 1836.6300000000003 1757.15 L 1738.0900000000004 1621.65 C 1727.0900000000004 1624.52 1715.5500000000004 1626.0700000000002 1703.6500000000003 1626.0700000000002 C 1628.6900000000003 1626.0700000000002 1567.9200000000003 1565.3000000000002 1567.9200000000003 1490.3500000000001 C 1567.9200000000003 1467.2300000000002 1573.7200000000003 1445.46 1583.9200000000003 1426.41 L 1540.3900000000003 1351.3100000000002 L 1639.0300000000004 1370.9700000000003 C 1658.2400000000005 1360.5400000000002 1680.2500000000005 1354.6200000000003 1703.6500000000005 1354.6200000000003 C 1739.9700000000005 1354.6200000000003 1772.9300000000005 1368.9200000000003 1797.2900000000006 1392.1600000000003 L 1974.6900000000007 1310.5300000000002 C 1974.5300000000007 1307.5400000000002 1974.4300000000007 1304.5400000000002 1974.4300000000007 1301.5200000000002 C 1974.4300000000007 1270.14 1983.2200000000007 1240.8100000000002 1998.4600000000007 1215.8600000000001 L 1970.6000000000008 1073.3300000000002 L 2077.1800000000007 1149.0000000000002" stroke-linecap="round" />
</g>
</g>
</g>
<g transform="matrix(1.9211538461538462 0 0 1.9211538461538462 827.3576019072702 491.75614779965485)" id="text-logo"  >
<g style=""  paint-order="stroke"   >
		<g transform="matrix(1 0 0 1 0 0)" id="text-logo-path-0"  >
<linearGradient id="SVGID_1190398" gradientUnits="userSpaceOnUse" gradientTransform="matrix(1 0 0 1 -0.11000000000001364 -49.06)"  x1="0.11199999999999477" y1="-0.17583999999999378" x2="0.11199999999999477" y2="62.824160000000006">
<stop offset="0%" style="stop-color:rgb(180,236,81);stop-opacity: 1"/>
<stop offset="100%" style="stop-color:rgb(66,147,33);stop-opacity: 1"/>
</linearGradient>
<path style="stroke: none; stroke-width: 0; stroke-dasharray: none; stroke-linecap: butt; stroke-dashoffset: 0; stroke-linejoin: miter; stroke-miterlimit: 4; fill: url(#SVGID_1190398); fill-rule: nonzero; opacity: 1;"  paint-order="stroke"  transform=" translate(-203.195, 24.475)" d="M 13.1 -35.9 L 36.12 -35.9 L 36.12 -40.94 C 36.12 -45.42 32.48 -49.06 28 -49.06 L 8.01 -49.06 C 3.53 -49.06 -0.11 -45.42 -0.11 -40.94 L -0.11 -0.06 L 36.01 -0.06 L 36.01 -13.1 L 12.99 -13.1 L 12.99 -16.8 L 27.44 -19.38 L 27.44 -32.65 L 12.99 -30.07 L 12.99 -35.9 Z M 77.67 -34.89 L 77.62 -34.89 L 77.62 -29.62 L 77.62 -29.62 L 77.62 -29.62 L 67.7 -27.89 L 67.7 -35.95 L 77.67 -35.95 Z M 90.72 -29.68 L 90.72 -29.9 L 90.72 -34.83 L 90.72 -34.83 L 90.72 -40.88 C 90.72 -45.36 87.14 -48.94 82.66 -48.94 L 62.72 -48.94 C 58.24 -48.94 54.6 -45.36 54.6 -40.88 L 54.6 0.06 L 67.7 0.06 L 67.7 -14.5 L 77.62 -16.24 L 77.62 -16.24 L 77.62 -16.24 L 77.62 0.11 L 90.72 0.11 L 90.72 -18.54 L 90.72 -18.7 C 90.61 -21.73 88.09 -24.02 85.18 -24.02 C 84.84 -24.02 84.5 -24.02 84.17 -23.97 L 86.13 -24.3 C 88.7 -24.75 90.61 -26.94 90.72 -29.51 Z M 120.34 -35.9 L 143.36 -35.9 L 143.36 -40.88 C 143.36 -45.36 139.72 -49 135.24 -49 L 115.36 -49 C 110.88 -49 107.24 -45.36 107.24 -40.88 L 107.24 0 L 143.36 0 L 143.36 -32.03 L 122.86 -28.45 L 122.86 -16.41 L 130.26 -17.7 L 130.26 -13.1 L 120.29 -13.1 L 120.29 -35.9 Z M 182.9 -15.68 L 172.93 -13.33 L 172.93 -33.38 L 182.9 -35.73 Z M 159.88 -40.94 L 159.88 0 L 196 0 L 196 -40.94 C 196 -45.42 192.36 -49.06 187.88 -49.06 L 167.89 -49.06 C 163.41 -49.06 159.77 -45.42 159.77 -40.94 Z M 248.64 0 L 248.64 -40.88 C 248.64 -45.36 245 -49 240.52 -49 L 212.46 -49 L 212.46 0 L 225.57 0 L 225.57 -28.39 L 235.48 -30.74 L 235.48 -30.74 L 235.48 0 L 248.53 0 Z M 288.23 -29.62 L 288.23 -29.62 L 278.32 -27.89 L 278.32 -35.95 L 288.29 -35.95 L 288.29 -29.62 Z M 293.27 -49 L 273.34 -49 C 268.86 -49 265.22 -45.42 265.22 -40.94 L 265.22 0 L 278.32 0 L 278.32 -14.56 L 288.23 -16.3 L 288.23 -16.3 L 288.23 0 L 301.28 0 L 301.28 -40.94 C 301.28 -45.42 297.7 -49 293.22 -49 Z M 353.92 -40.88 C 353.92 -45.36 350.28 -49 345.8 -49 L 340.82 -49 L 340.82 -19.71 L 330.9 -17.36 L 330.9 -17.36 L 330.9 -49 L 325.98 -49 C 321.5 -49 317.86 -45.36 317.86 -40.88 L 317.86 0 L 353.98 0 L 353.98 -40.88 Z M 405.38 -49 L 395.02 -49 L 381.92 -49 L 370.38 -49 L 370.38 -42.84 L 370.38 -35.9 L 370.38 -29.51 L 381.92 -31.53 L 381.92 0.06 L 395.02 0.06 L 395.02 -33.82 L 406.5 -35.84 L 406.5 -35.84 L 406.5 -35.84 L 406.5 -48.94 L 405.33 -48.94 Z" stroke-linecap="round" />
</g>
</g>
</g>
</svg>